{
  "accessors": [
    {
      "bufferView": 2,
      "componentType": 5126,
      "count": 65534,
      "max": [
        0.1438208520412445,
        1.159988284111023,
        0.2655481696128845
      ],
      "min": [
        -0.14382053911685944,
        -1.1598050594329834,
        -0.23462095856666565
      ],
      "type": "VEC3"
    },
    {
      "bufferView": 2,
      "byteOffset": 786408,
      "componentType": 5126,
      "count": 65534,
      "max": [
        1.0,
        1.0,
        1.0
      ],
      "min": [
        -1.0,
        -1.0,
        -1.0
      ],
      "type": "VEC3"
    },
    {
      "bufferView": 3,
      "componentType": 5126,
      "count": 65534,
      "max": [
        1.0,
        1.0,
        1.0,
        1.0
      ],
      "min": [
        -1.0,
        -1.0,
        -1.0,
        1.0
      ],
      "type": "VEC4"
    },
    {
      "bufferView": 1,
      "componentType": 5126,
      "count": 65534,
      "max": [
        0.9966928958892822,
        0.99755859375
      ],
      "min": [
        0.00244140625,
        0.00244140625
      ],
      "type": "VEC2"
    },
    {
      "bufferView": 0,
      "componentType": 5125,
      "count": 171849,
      "type": "SCALAR"
    },
    {
      "bufferView": 2,
      "byteOffset": 1572816,
      "componentType": 5126,
      "count": 3377,
      "max": [
        0.1438208520412445,
        1.148175835609436,
        0.2526344656944275
      ],
      "min": [
        -0.1328829675912857,
        -1.1479687690734863,
        -0.22171375155448914
      ],
      "type": "VEC3"
    },
    {
      "bufferView": 2,
      "byteOffset": 1613340,
      "componentType": 5126,
      "count": 3377,
      "max": [
        1.0,
        3.481048042885959e-05,
        1.6515254174009897e-05
      ],
      "min": [
        -1.0,
        -3.264712722739205e-05,
        -1.5066774722072296e-05
      ],
      "type": "VEC3"
    },
    {
      "bufferView": 3,
      "byteOffset": 1048544,
      "componentType": 5126,
      "count": 3377,
      "max": [
        2.0360324924695306e-05,
        1.0,
        1.0,
        1.0
      ],
      "min": [
        -3.263144753873348e-05,
        -1.0,
        -1.0,
        1.0
      ],
      "type": "VEC4"
    },
    {
      "bufferView": 1,
      "byteOffset": 524272,
      "componentType": 5126,
      "count": 3377,
      "max": [
        0.9117303490638733,
        0.9111084342002869
      ],
      "min": [
        0.00244140625,
        0.00244140625
      ],
      "type": "VEC2"
    },
    {
      "bufferView": 0,
      "byteOffset": 687396,
      "componentType": 5125,
      "count": 9207,
      "type": "SCALAR"
    },
    {
      "bufferView": 2,
      "byteOffset": 1653864,
      "componentType": 5126,
      "count": 6925,
      "max": [
        0.6714885234832764,
        1.3802828788757324,
        1.026760458946228
      ],
      "min": [
        -0.6714885830879211,
        -2.164694309234619,
        0.16129674017429352
      ],
      "type": "VEC3"
    },
    {
      "bufferView": 2,
      "byteOffset": 1736964,
      "componentType": 5126,
      "count": 6925,
      "max": [
        1.0,
        1.0,
        1.0
      ],
      "min": [
        -1.0,
        -1.0,
        -1.0
      ],
      "type": "VEC3"
    },
    {
      "bufferView": 3,
      "byteOffset": 1102576,
      "componentType": 5126,
      "count": 6925,
      "max": [
        1.0,
        1.0,
        1.0,
        1.0
      ],
      "min": [
        -1.0,
        -1.0,
        -1.0,
        1.0
      ],
      "type": "VEC4"
    },
    {
      "bufferView": 1,
      "byteOffset": 551288,
      "componentType": 5126,
      "count": 6925,
      "max": [
        0.9979248046875,
        0.9844255447387695
      ],
      "min": [
        0.0020751953125,
        0.0020751953125
      ],
      "type": "VEC2"
    },
    {
      "bufferView": 0,
      "byteOffset": 724224,
      "componentType": 5125,
      "count": 18456,
      "type": "SCALAR"
    },
    {
      "bufferView": 2,
      "byteOffset": 1820064,
      "componentType": 5126,
      "count": 64782,
      "max": [
        0.1925775706768036,
        0.1165214404463768,
        0.23159249126911163
      ],
      "min": [
        -0.9974658489227295,
        -2.1397287845611572,
        -0.20138631761074066
      ],
      "type": "VEC3"
    },
    {
      "bufferView": 2,
      "byteOffset": 2597448,
      "componentType": 5126,
      "count": 64782,
      "max": [
        1.0,
        1.0,
        1.0
      ],
      "min": [
        -1.0,
        -1.0,
        -1.0
      ],
      "type": "VEC3"
    },
    {
      "bufferView": 3,
      "byteOffset": 1213376,
      "componentType": 5126,
      "count": 64782,
      "max": [
        1.0,
        1.0,
        1.0,
        1.0
      ],
      "min": [
        -1.0,
        -1.0,
        -1.0,
        -1.0
      ],
      "type": "VEC4"
    },
    {
      "bufferView": 1,
      "byteOffset": 606688,
      "componentType": 5126,
      "count": 64782,
      "max": [
        0.9928649067878723,
        0.99755859375
      ],
      "min": [
        0.00244140625,
        0.00244140625
      ],
      "type": "VEC2"
    },
    {
      "bufferView": 0,
      "byteOffset": 798048,
      "componentType": 5125,
      "count": 183876,
      "type": "SCALAR"
    },
    {
      "bufferView": 2,
      "byteOffset": 3374832,
      "componentType": 5126,
      "count": 65532,
      "max": [
        1.1588038206100464,
        1.159988284111023,
        0.2655481696128845
      ],
      "min": [
        0.8711624145507813,
        -1.1598050594329834,
        -0.23462095856666565
      ],
      "type": "VEC3"
    },
    {
      "bufferView": 2,
      "byteOffset": 4161216,
      "componentType": 5126,
      "count": 65532,
      "max": [
        1.0,
        1.0,
        1.0
      ],
      "min": [
        -1.0,
        -1.0,
        -1.0
      ],
      "type": "VEC3"
    },
    {
      "bufferView": 3,
      "byteOffset": 2249888,
      "componentType": 5126,
      "count": 65532,
      "max": [
        1.0,
        1.0,
        1.0,
        -1.0
      ],
      "min": [
        -1.0,
        -1.0,
        -1.0,
        -1.0
      ],
      "type": "VEC4"
    },
    {
      "bufferView": 1,
      "byteOffset": 1124944,
      "componentType": 5126,
      "count": 65532,
      "max": [
        0.9974645972251892,
        0.99755859375
      ],
      "min": [
        0.00244140625,
        0.00244140625
      ],
      "type": "VEC2"
    },
    {
      "bufferView": 0,
      "byteOffset": 1533552,
      "componentType": 5125,
      "count": 170793,
      "type": "SCALAR"
    },
    {
      "bufferView": 2,
      "byteOffset": 4947600,
      "componentType": 5126,
      "count": 4159,
      "max": [
        1.1478662490844727,
        0.813058078289032,
        0.2526344656944275
      ],
      "min": [
        0.8711624145507813,
        -1.1479687690734863,
        -0.22171376645565033
      ],
      "type": "VEC3"
    },
    {
      "bufferView": 2,
      "byteOffset": 4997508,
      "componentType": 5126,
      "count": 4159,
      "max": [
        1.0,
        0.9999309778213501,
        1.0
      ],
      "min": [
        -1.0,
        -0.9997944831848145,
        -1.0
      ],
      "type": "VEC3"
    },
    {
      "bufferView": 3,
      "byteOffset": 3298400,
      "componentType": 5126,
      "count": 4159,
      "max": [
        0.9999999403953552,
        1.0,
        1.0,
        -1.0
      ],
      "min": [
        -0.9999999403953552,
        -1.0,
        -1.0,
        -1.0
      ],
      "type": "VEC4"
    },
    {
      "bufferView": 1,
      "byteOffset": 1649200,
      "componentType": 5126,
      "count": 4159,
      "max": [
        0.9121271967887878,
        0.9104481339454651
      ],
      "min": [
        0.00244140625,
        0.00244140625
      ],
      "type": "VEC2"
    },
    {
      "bufferView": 0,
      "byteOffset": 2216724,
      "componentType": 5125,
      "count": 10263,
      "type": "SCALAR"
    },
    {
      "bufferView": 2,
      "byteOffset": 5047416,
      "componentType": 5126,
      "count": 39418,
      "max": [
        0.9312629103660583,
        0.7908579707145691,
        0.425139456987381
      ],
      "min": [
        -0.2311490774154663,
        -1.858093500137329,
        -0.44434940814971924
      ],
      "type": "VEC3"
    },
    {
      "bufferView": 2,
      "byteOffset": 5520432,
      "componentType": 5126,
      "count": 39418,
      "max": [
        1.0,
        1.0,
        1.0
      ],
      "min": [
        -1.0,
        -1.0,
        -1.0
      ],
      "type": "VEC3"
    },
    {
      "bufferView": 3,
      "byteOffset": 3364944,
      "componentType": 5126,
      "count": 39418,
      "max": [
        1.0,
        1.0,
        1.0,
        1.0
      ],
      "min": [
        -1.0,
        -1.0,
        -1.0,
        -1.0
      ],
      "type": "VEC4"
    },
    {
      "bufferView": 1,
      "byteOffset": 1682472,
      "componentType": 5126,
      "count": 39418,
      "max": [
        0.996117353439331,
        0.9981689453125
      ],
      "min": [
        0.0018310546875,
        0.0018310546875
      ],
      "type": "VEC2"
    },
    {
      "bufferView": 0,
      "byteOffset": 2257776,
      "componentType": 5125,
      "count": 134553,
      "type": "SCALAR"
    }
  ],
  "asset": {
    "extras": {
      "author": "___konstantsin___ (https://sketchfab.com/___konstantsin___)",
      "license": "CC-BY-NC-4.0 (http://creativecommons.org/licenses/by-nc/4.0/)",
      "source": "https://sketchfab.com/3d-models/tiger-2-konig-tiger-ii-free-1efd3b97987049f59bc736aeabe996bf",
      "title": "Tiger 2 (König Tiger II) (FREE)"
    },
    "generator": "Sketchfab-13.74.0",
    "version": "2.0"
  },
  "bufferViews": [
    {
      "buffer": 0,
      "byteLength": 2795988,
      "name": "floatBufferViews",
      "target": 34963
    },
    {
      "buffer": 0,
      "byteLength": 1997816,
      "byteOffset": 2795988,
      "byteStride": 8,
      "name": "floatBufferViews",
      "target": 34962
    },
    {
      "buffer": 0,
      "byteLength": 5993448,
      "byteOffset": 4793804,
      "byteStride": 12,
      "name": "floatBufferViews",
      "target": 34962
    },
    {
      "buffer": 0,
      "byteLength": 3995632,
      "byteOffset": 10787252,
      "byteStride": 16,
      "name": "floatBufferViews",
      "target": 34962
    }
  ],
  "buffers": [
    {
      "byteLength": 14782884,
      "uri": "scene.bin"
    }
  ],
  "images": [
    {
      "uri": "textures/Track_right_baseColor.png"
    },
    {
      "uri": "textures/Track_right_metallicRoughness.png"
    },
    {
      "uri": "textures/Track_right_normal.png"
    },
    {
      "uri": "textures/Main_shell_baseColor.png"
    },
    {
      "uri": "textures/Main_shell_metallicRoughness.png"
    },
    {
      "uri": "textures/Main_shell_normal.png"
    },
    {
      "uri": "textures/Tyres_baseColor.png"
    },
    {
      "uri": "textures/Tyres_metallicRoughness.png"
    },
    {
      "uri": "textures/Tyres_normal.png"
    },
    {
      "uri": "textures/Track_left_baseColor.png"
    },
    {
      "uri": "textures/Track_left_metallicRoughness.png"
    },
    {
      "uri": "textures/Track_left_normal.png"
    },
    {
      "uri": "textures/Small_parts_baseColor.png"
    },
    {
      "uri": "textures/Small_parts_metallicRoughness.png"
    },
    {
      "uri": "textures/Small_parts_normal.png"
    }
  ],
  "materials": [
    {
      "doubleSided": true,
      "name": "Track_right",
      "normalTexture": {
        "index": 2
      },
      "occlusionTexture": {
        "index": 1
      },
      "pbrMetallicRoughness": {
        "baseColorTexture": {
          "index": 0
        },
        "metallicRoughnessTexture": {
          "index": 1
        }
      }
    },
    {
      "doubleSided": true,
      "name": "Main_shell",
      "normalTexture": {
        "index": 5
      },
      "occlusionTexture": {
        "index": 4
      },
      "pbrMetallicRoughness": {
        "baseColorTexture": {
          "index": 3
        },
        "metallicRoughnessTexture": {
          "index": 4
        }
      }
    },
    {
      "doubleSided": true,
      "name": "Tyres",
      "normalTexture": {
        "index": 8
      },
      "occlusionTexture": {
        "index": 7
      },
      "pbrMetallicRoughness": {
        "baseColorTexture": {
          "index": 6
        },
        "metallicRoughnessTexture": {
          "index": 7
        }
      }
    },
    {
      "doubleSided": true,
      "name": "Track_left",
      "normalTexture": {
        "index": 11
      },
      "occlusionTexture": {
        "index": 10
      },
      "pbrMetallicRoughness": {
        "baseColorTexture": {
          "index": 9
        },
        "metallicRoughnessTexture": {
          "index": 10
        }
      }
    },
    {
      "doubleSided": true,
      "name": "Small_parts",
      "normalTexture": {
        "index": 14
      },
      "occlusionTexture": {
        "index": 13
      },
      "pbrMetallicRoughness": {
        "baseColorTexture": {
          "index": 12
        },
        "metallicRoughnessTexture": {
          "index": 13
        }
      }
    }
  ],
  "meshes": [
    {
      "name": "Track_right_LOW_Track_right_0",
      "primitives": [
        {
          "attributes": {
            "NORMAL": 1,
            "POSITION": 0,
            "TANGENT": 2,
            "TEXCOORD_0": 3
          },
          "indices": 4,
          "material": 0,
          "mode": 4
        }
      ]
    },
    {
      "name": "Track_right_LOW_Track_right_0",
      "primitives": [
        {
          "attributes": {
            "NORMAL": 6,
            "POSITION": 5,
            "TANGENT": 7,
            "TEXCOORD_0": 8
          },
          "indices": 9,
          "material": 0,
          "mode": 4
        }
      ]
    },
    {
      "name": "Main_shell_LOW_Main_shell_0",
      "primitives": [
        {
          "attributes": {
            "NORMAL": 11,
            "POSITION": 10,
            "TANGENT": 12,
            "TEXCOORD_0": 13
          },
          "indices": 14,
          "material": 1,
          "mode": 4
        }
      ]
    },
    {
      "name": "Tyres_LOW_Tyres_0",
      "primitives": [
        {
          "attributes": {
            "NORMAL": 16,
            "POSITION": 15,
            "TANGENT": 17,
            "TEXCOORD_0": 18
          },
          "indices": 19,
          "material": 2,
          "mode": 4
        }
      ]
    },
    {
      "name": "Track_left_LOW_Track_left_0",
      "primitives": [
        {
          "attributes": {
            "NORMAL": 21,
            "POSITION": 20,
            "TANGENT": 22,
            "TEXCOORD_0": 23
          },
          "indices": 24,
          "material": 3,
          "mode": 4
        }
      ]
    },
    {
      "name": "Track_left_LOW_Track_left_0",
      "primitives": [
        {
          "attributes": {
            "NORMAL": 26,
            "POSITION": 25,
            "TANGENT": 27,
            "TEXCOORD_0": 28
          },
          "indices": 29,
          "material": 3,
          "mode": 4
        }
      ]
    },
    {
      "name": "Small_parts_LOW_Small_parts_0",
      "primitives": [
        {
          "attributes": {
            "NORMAL": 31,
            "POSITION": 30,
            "TANGENT": 32,
            "TEXCOORD_0": 33
          },
          "indices": 34,
          "material": 4,
          "mode": 4
        }
      ]
    }
  ],
  "nodes": [
    {
      "children": [
        1
      ],
      "matrix": [
        1.0,
        0.0,
        0.0,
        0.0,
        0.0,
        2.220446049250313e-16,
        -1.0,
        0.0,
        0.0,
        1.0,
        2.220446049250313e-16,
        0.0,
        0.0,
        0.0,
        0.0,
        1.0
      ],
      "name": "Sketchfab_model"
    },
    {
      "children": [
        2
      ],
      "matrix": [
        0.009999999776482582,
        0.0,
        0.0,
        0.0,
        0.0,
        0.0,
        0.009999999776482582,
        0.0,
        0.0,
        -0.009999999776482582,
        0.0,
        0.0,
        0.0,
        0.0,
        0.0,
        1.0
      ],
      "name": "e57333bb256146be9440e2cf7bcc0068.fbx"
    },
    {
      "children": [
        3,
        6,
        8,
        10,
        13
      ],
      "name": "RootNode"
    },
    {
      "children": [
        4,
        5
      ],
      "matrix": [
        100.0,
        0.0,
        0.0,
        0.0,
        -0.0,
        -1.629206793918314e-05,
        -99.99999999999868,
        0.0,
        0.0,
        99.99999999999868,
        -1.629206793918314e-05,
        0.0,
        -50.74916458129883,
        23.45358657836914,
        -36.450767517089844,
        1.0
      ],
      "name": "Track_right_LOW"
    },
    {
      "mesh": 0,
      "name": "Track_right_LOW_Track_right_0"
    },
    {
      "mesh": 1,
      "name": "Track_right_LOW_Track_right_0"
    },
    {
      "children": [
        7
      ],
      "matrix": [
        100.0,
        0.0,
        0.0,
        0.0,
        -0.0,
        -1.629206793918314e-05,
        -99.99999999999868,
        0.0,
        0.0,
        99.99999999999868,
        -1.629206793918314e-05,
        0.0,
        -1.4901161193847656e-06,
        0.0,
        -36.59328079223633,
        1.0
      ],
      "name": "Main_shell_LOW"
    },
    {
      "mesh": 2,
      "name": "Main_shell_LOW_Main_shell_0"
    },
    {
      "children": [
        9
      ],
      "matrix": [
        100.0,
        0.0,
        0.0,
        0.0,
        0.0,
        -1.629206793918314e-05,
        -99.99999999999868,
        0.0,
        0.0,
        99.99999999999868,
        -1.629206793918314e-05,
        0.0,
        40.244415283203125,
        23.47197151184082,
        -137.5662078857422,
        1.0
      ],
      "name": "Tyres_LOW"
    },
    {
      "mesh": 3,
      "name": "Tyres_LOW_Tyres_0"
    },
    {
      "children": [
        11,
        12
      ],
      "matrix": [
        100.0,
        0.0,
        0.0,
        0.0,
        -0.0,
        -1.629206793918314e-05,
        -99.99999999999868,
        0.0,
        0.0,
        99.99999999999868,
        -1.629206793918314e-05,
        0.0,
        -50.74916458129883,
        23.45358657836914,
        -36.450767517089844,
        1.0
      ],
      "name": "Track_left_LOW"
    },
    {
      "mesh": 4,
      "name": "Track_left_LOW_Track_left_0"
    },
    {
      "mesh": 5,
      "name": "Track_left_LOW_Track_left_0"
    },
    {
      "children": [
        14
      ],
      "matrix": [
        100.0,
        0.0,
        0.0,
        0.0,
        -0.0,
        -1.629206793918314e-05,
        -99.99999999999868,
        0.0,
        0.0,
        99.99999999999868,
        -1.629206793918314e-05,
        0.0,
        -35.005699157714844,
        69.08663177490234,
        -100.93687438964844,
        1.0
      ],
      "name": "Small_parts_LOW"
    },
    {
      "mesh": 6,
      "name": "Small_parts_LOW_Small_parts_0"
    }
  ],
  "samplers": [
    {
      "magFilter": 9729,
      "minFilter": 9987,
      "wrapS": 10497,
      "wrapT": 10497
    }
  ],
  "scene": 0,
  "scenes": [
    {
      "name": "Sketchfab_Scene",
      "nodes": [
        0
      ]
    }
  ],
  "textures": [
    {
      "sampler": 0,
      "source": 0
    },
    {
      "sampler": 0,
      "source": 1
    },
    {
      "sampler": 0,
      "source": 2
    },
    {
      "sampler": 0,
      "source": 3
    },
    {
      "sampler": 0,
      "source": 4
    },
    {
      "sampler": 0,
      "source": 5
    },
    {
      "sampler": 0,
      "source": 6
    },
    {
      "sampler": 0,
      "source": 7
    },
    {
      "sampler": 0,
      "source": 8
    },
    {
      "sampler": 0,
      "source": 9
    },
    {
      "sampler": 0,
      "source": 10
    },
    {
      "sampler": 0,
      "source": 11
    },
    {
      "sampler": 0,
      "source": 12
    },
    {
      "sampler": 0,
      "source": 13
    },
    {
      "sampler": 0,
      "source": 14
    }
  ]
}
